# xmcd
#
# Track frame offsets:
#	150
#	13617
#	30648
#	53613
#
# Disc length: 1168 seconds
#
# Revision: 1
# Processed by: cddbd v1.5.2PL0 Copyright (c) Steve Scherf et al.
# Submitted via: audiograbber 1.83.01
#
DISCID=24048e04
DTITLE=Moonshine Featuring Byron Stingily - CD Single
DYEAR=2002
DGENRE=
TTITLE0=Shake Your Body (Motivo Radio Edit)
TTITLE1=Shake Your Body (TK Base Radio Edit)
TTITLE2=Shake Your Body (Jam and Face Shake Your Latin Booty)
TTITLE3=Shake Your Body (Sleazesisters Anthem Remix)
EXTD=
EXTT0=
EXTT1=
EXTT2=
EXTT3=
PLAYORDER=
